<?xml version="1.0" encoding="iso-8859-1"?>
<!-- Generator: Adobe Illustrator 19.0.0, SVG Export Plug-In . SVG Version: 6.00 Build 0)  -->
<svg version="1.1" id="Layer_1" xmlns="http://www.w3.org/2000/svg" xmlns:xlink="http://www.w3.org/1999/xlink" x="0px" y="0px"
	 viewBox="0 0 512 512" style="enable-background:new 0 0 512 512;" xml:space="preserve">
<g>
	<g>
		<path d="M266.667,365.504v38.464C278.933,400.96,288,393.067,288,384C288,375.531,280.896,369.6,266.667,365.504z"/>
	</g>
</g>
<g>
	<g>
		<path d="M224,320c0,8.469,7.125,14.379,21.333,18.496v-38.464C233.067,303.04,224,310.933,224,320z"/>
	</g>
</g>
<g>
	<g>
		<path d="M392,14.272c-3.008-3.413-8.661-7.488-18.496-7.488c-21.44,0-55.531,20.736-72,31.659C289.344,21.163,271.317,0,256,0
			s-33.344,21.163-45.504,38.464c-16.469-10.944-50.56-31.659-72-31.659c-9.813,0-15.488,4.075-18.496,7.488
			c-4.843,5.461-7.019,12.587-6.315,20.587c2.432,28.053,43.648,69.056,70.656,93.12h143.36
			c26.987-24.064,68.203-65.045,70.656-93.12C399.04,26.88,396.843,19.755,392,14.272z"/>
	</g>
</g>
<g>
	<g>
		<path d="M323.371,149.333h-134.72C147.925,193.387,53.333,301.099,53.333,352c0,88.235,90.923,160,202.667,160
			s202.667-71.765,202.667-160C458.667,301.077,364.096,193.365,323.371,149.333z M266.667,425.792v11.541
			c0,5.888-4.779,10.667-10.667,10.667s-10.667-4.779-10.667-10.667v-11.499c-23.339-3.648-40.981-19.157-42.624-38.891
			c-0.491-5.867,3.861-11.029,9.728-11.52c5.952-0.576,11.029,3.861,11.52,9.728c0.725,8.661,9.621,16,21.376,18.859v-43.499
			c-28.693-7.061-42.667-20.544-42.667-40.512c0-20.608,18.347-37.824,42.667-41.792v-11.541c0-5.888,4.779-10.667,10.667-10.667
			s10.667,4.779,10.667,10.667v11.499c23.339,3.648,40.96,19.136,42.624,38.891c0.491,5.867-3.861,11.029-9.728,11.52
			c-5.696,0.747-11.029-3.861-11.52-9.728c-0.725-8.661-9.621-15.979-21.376-18.859v43.499
			c28.693,7.061,42.667,20.523,42.667,40.533C309.333,404.608,290.987,421.824,266.667,425.792z"/>
	</g>
</g>
<g>
</g>
<g>
</g>
<g>
</g>
<g>
</g>
<g>
</g>
<g>
</g>
<g>
</g>
<g>
</g>
<g>
</g>
<g>
</g>
<g>
</g>
<g>
</g>
<g>
</g>
<g>
</g>
<g>
</g>
</svg>
