<?xml version="1.0" encoding="utf-8"?>
<!-- Generator: Adobe Illustrator 16.0.0, SVG Export Plug-In . SVG Version: 6.00 Build 0)  -->
<!DOCTYPE svg PUBLIC "-//W3C//DTD SVG 1.1//EN" "http://www.w3.org/Graphics/SVG/1.1/DTD/svg11.dtd">
<svg version="1.1" id="Layer_1" xmlns="http://www.w3.org/2000/svg" xmlns:xlink="http://www.w3.org/1999/xlink" x="0px" y="0px"
	 width="460.8px" height="259.2px" viewBox="0 0 460.8 259.2" enable-background="new 0 0 460.8 259.2" xml:space="preserve">
<g>
	<rect x="137.95" y="22.673" fill-rule="evenodd" clip-rule="evenodd" fill="#ED553B" width="62.41" height="82.629"/>
	<path fill-rule="evenodd" clip-rule="evenodd" fill="#173F5F" d="M199.356,23.677h-60.402v80.62h60.402V23.677L199.356,23.677z
		 M137.95,21.668h63.416v84.638h-64.42V21.668H137.95z"/>
	<rect x="137.95" y="105.302" fill-rule="evenodd" clip-rule="evenodd" fill="#F6D55C" width="62.41" height="82.629"/>
	<path fill-rule="evenodd" clip-rule="evenodd" fill="#173F5F" d="M200.361,188.936h-63.416v-84.639h64.42v84.639H200.361
		L200.361,188.936z M138.955,186.926h60.402v-80.62h-60.402V186.926z"/>
	<rect x="200.36" y="22.726" fill-rule="evenodd" clip-rule="evenodd" fill="#3CAEA3" width="60.078" height="165.152"/>
	<path fill-rule="evenodd" clip-rule="evenodd" fill="#173F5F" d="M200.361,21.721h61.083v167.162h-62.087V21.721H200.361
		L200.361,21.721z M259.435,23.73h-58.069v163.144h58.069V23.73z"/>
	<rect x="260.438" y="22.673" fill-rule="evenodd" clip-rule="evenodd" fill="#F6D55C" width="62.411" height="82.629"/>
	<path fill-rule="evenodd" clip-rule="evenodd" fill="#173F5F" d="M321.846,23.677h-60.402v80.62h60.402V23.677L321.846,23.677z
		 M260.439,21.668h63.415v84.638h-64.42V21.668H260.439z"/>
	<rect x="260.438" y="105.302" fill-rule="evenodd" clip-rule="evenodd" fill="#ED553B" width="62.411" height="82.629"/>
	<path fill-rule="evenodd" clip-rule="evenodd" fill="#173F5F" d="M322.85,188.936h-63.415v-84.639h64.42v84.639H322.85
		L322.85,188.936z M261.443,186.926h60.402v-80.62h-60.402V186.926z"/>
	<rect x="77.872" y="22.726" fill-rule="evenodd" clip-rule="evenodd" fill="#20639B" width="60.078" height="165.152"/>
	<path fill-rule="evenodd" clip-rule="evenodd" fill="#173F5F" d="M77.872,21.721h61.083v167.162H76.867V21.721H77.872
		L77.872,21.721z M136.945,23.73H78.876v163.144h58.069V23.73z"/>
	<rect x="322.85" y="22.726" fill-rule="evenodd" clip-rule="evenodd" fill="#20639B" width="60.078" height="165.152"/>
	<path fill-rule="evenodd" clip-rule="evenodd" fill="#173F5F" d="M322.85,21.721h61.083v167.162h-62.087V21.721H322.85
		L322.85,21.721z M381.924,23.73h-58.069v163.144h58.069V23.73z"/>
	<polygon fill-rule="evenodd" clip-rule="evenodd" fill="#FFFFFF" points="77.873,187.909 230.4,187.909 382.928,187.909 
		382.928,236.527 230.4,236.527 77.873,236.527 	"/>
	<path fill-rule="evenodd" clip-rule="evenodd" fill="#173F5F" d="M77.872,186.905h306.061v50.627H76.867v-50.627H77.872
		L77.872,186.905z M230.4,188.914H78.876v46.609h303.047v-46.609H230.4z"/>
	<path fill-rule="evenodd" clip-rule="evenodd" fill="#FFFFFF" d="M169.412,78.94c1.449,0,2.646-0.181,3.581-0.533
		c0.936-0.352,1.68-0.815,2.243-1.398s0.956-1.257,1.177-2.012c0.222-0.754,0.332-1.529,0.332-2.334c0-0.885-0.13-1.68-0.392-2.384
		s-0.684-1.308-1.268-1.801c-0.583-0.493-1.338-0.865-2.273-1.126c-0.935-0.261-2.092-0.392-3.46-0.392h-7.695v11.98H169.412
		L169.412,78.94z M161.657,48.974v11.829h5.945c1.268,0,2.394-0.111,3.38-0.322c0.986-0.211,1.811-0.543,2.475-1.006
		c0.664-0.463,1.177-1.077,1.529-1.831c0.352-0.755,0.523-1.66,0.523-2.727c0-1.086-0.141-2.011-0.433-2.776
		c-0.292-0.765-0.744-1.378-1.348-1.841c-0.604-0.463-1.368-0.805-2.293-1.016c-0.925-0.211-2.022-0.312-3.29-0.312H161.657
		L161.657,48.974z M168.145,42.093c2.938,0,5.452,0.272,7.534,0.825c2.083,0.554,3.782,1.338,5.1,2.354
		c1.318,1.016,2.273,2.253,2.877,3.702c0.604,1.448,0.905,3.068,0.905,4.858c0,1.006-0.141,1.972-0.432,2.897
		c-0.292,0.925-0.745,1.791-1.358,2.605c-0.614,0.815-1.408,1.56-2.374,2.223c-0.965,0.664-2.112,1.227-3.44,1.69
		c2.978,0.704,5.181,1.851,6.609,3.44s2.143,3.651,2.143,6.186c0,1.851-0.352,3.571-1.066,5.16c-0.714,1.59-1.761,2.967-3.128,4.135
		c-1.368,1.167-3.048,2.072-5.05,2.726c-2.001,0.654-4.305,0.986-6.9,0.986h-16.959V42.093H168.145z"/>
	<path fill-rule="evenodd" clip-rule="evenodd" fill="#FFFFFF" d="M254.542,83.409v43.787h-7.997v-26.888
		c0-0.563,0.021-1.167,0.05-1.811c0.03-0.644,0.081-1.297,0.161-1.961l-12.523,23.75c-0.684,1.308-1.74,1.961-3.168,1.961h-1.268
		c-0.704,0-1.328-0.171-1.871-0.503c-0.543-0.332-0.976-0.815-1.297-1.458l-12.584-23.84c0.061,0.704,0.11,1.378,0.151,2.032
		c0.04,0.654,0.06,1.268,0.06,1.831v26.888h-7.997V83.409h6.88c0.382,0,0.724,0.01,1.026,0.03s0.573,0.07,0.805,0.161
		c0.231,0.09,0.443,0.231,0.634,0.422c0.191,0.191,0.372,0.462,0.553,0.805l12.252,23.357c0.382,0.704,0.744,1.428,1.076,2.173
		c0.332,0.744,0.644,1.509,0.945,2.293c0.302-0.805,0.625-1.589,0.956-2.354c0.332-0.764,0.685-1.499,1.066-2.203l12.162-23.266
		c0.181-0.342,0.372-0.614,0.572-0.805c0.202-0.191,0.423-0.332,0.654-0.422c0.231-0.091,0.493-0.141,0.784-0.161
		c0.292-0.02,0.635-0.03,1.036-0.03H254.542z"/>
	<path fill-rule="evenodd" clip-rule="evenodd" fill="#FFFFFF" d="M305.375,157.736c0.503,0,0.925,0.181,1.267,0.543l3.592,3.833
		c-1.771,2.253-3.964,3.963-6.589,5.13s-5.754,1.75-9.375,1.75c-3.279,0-6.227-0.563-8.842-1.68
		c-2.615-1.117-4.838-2.666-6.669-4.657c-1.831-1.992-3.239-4.355-4.226-7.092c-0.985-2.736-1.478-5.724-1.478-8.963
		c0-2.172,0.241-4.245,0.714-6.206c0.473-1.962,1.156-3.762,2.062-5.412c0.905-1.649,2.002-3.138,3.279-4.466s2.716-2.465,4.325-3.4
		c1.609-0.936,3.37-1.65,5.271-2.143c1.901-0.493,3.923-0.734,6.075-0.734c1.609,0,3.139,0.141,4.577,0.422s2.776,0.674,4.023,1.177
		c1.247,0.503,2.404,1.107,3.461,1.821c1.056,0.714,2.001,1.499,2.847,2.344l-3.049,4.164c-0.181,0.262-0.412,0.493-0.693,0.694
		c-0.282,0.201-0.664,0.302-1.147,0.302c-0.482,0-0.965-0.171-1.458-0.514c-0.493-0.342-1.097-0.724-1.811-1.146
		s-1.609-0.805-2.686-1.146s-2.444-0.513-4.095-0.513c-1.83,0-3.51,0.332-5.039,0.995c-1.529,0.664-2.837,1.62-3.934,2.877
		c-1.096,1.258-1.951,2.807-2.555,4.638c-0.604,1.83-0.905,3.913-0.905,6.246c0,2.354,0.332,4.446,0.986,6.287
		c0.653,1.841,1.549,3.4,2.686,4.668c1.137,1.267,2.464,2.223,3.983,2.877c1.519,0.653,3.139,0.985,4.868,0.985
		c1.026,0,1.962-0.051,2.797-0.151s1.609-0.271,2.323-0.513s1.389-0.553,2.021-0.936c0.634-0.382,1.268-0.865,1.912-1.448
		c0.221-0.182,0.452-0.332,0.693-0.453C304.832,157.797,305.093,157.736,305.375,157.736z"/>
	<g>
		<path fill-rule="evenodd" clip-rule="evenodd" fill="#173F5F" d="M166.666,226.309v0.381c0.043,1.386-0.201,2.388-0.727,3.003
			c-0.526,0.616-1.398,0.922-2.62,0.922c-1.203,0-2.094-0.284-2.672-0.856c-0.579-0.569-0.866-1.451-0.866-2.639v-5.685
			c0-1.377,0.282-2.372,0.847-2.985c0.563-0.612,1.485-0.918,2.759-0.918c1.206,0,2.072,0.278,2.589,0.835
			c0.467,0.482,0.696,1.222,0.689,2.218v0.427v0.381h-1.744v-0.381c0.024-0.771-0.071-1.302-0.288-1.593
			c-0.216-0.294-0.628-0.439-1.234-0.439c-0.662,0-1.141,0.17-1.435,0.507c-0.294,0.338-0.439,0.889-0.439,1.655v5.676
			c0,0.891,0.124,1.506,0.374,1.843c0.248,0.338,0.702,0.508,1.364,0.508c0.603,0,1.03-0.195,1.29-0.582
			c0.257-0.387,0.38-1.021,0.368-1.898v-0.378H166.666L166.666,226.309z M182.25,230.466V217.68l0,0h0.878l0,0h3.173
			c1.058,0,1.844,0.26,2.351,0.779c0.507,0.52,0.761,1.32,0.761,2.409v-0.127c0,1.166-0.288,2.008-0.859,2.527
			c-0.381,0.35-0.931,0.581-1.649,0.696l0,0c0.773,0.056,1.309,0.237,1.612,0.547c0.355,0.368,0.544,1.083,0.563,2.141
			c0.012,0.77,0.046,1.413,0.108,1.933l0.037,0.3c0.04,0.335,0.083,0.619,0.13,0.854c0.046,0.234,0.105,0.479,0.176,0.727h-0.918
			h-0.916c-0.086-0.393-0.148-0.699-0.186-0.916c-0.04-0.219-0.065-0.398-0.077-0.538l-0.028-0.271
			c-0.053-0.532-0.084-1.12-0.096-1.77c-0.012-0.829-0.167-1.416-0.467-1.77c-0.297-0.35-0.789-0.525-1.473-0.525h-1.357h-0.019
			v5.79l0,0h-0.872H182.25L182.25,230.466z M183.995,223.229L183.995,223.229h1.395c0.881,0,1.481-0.167,1.8-0.501
			c0.319-0.334,0.479-0.965,0.479-1.893v0.126c0-0.699-0.164-1.178-0.489-1.441c-0.325-0.263-0.921-0.393-1.791-0.393h-1.395l0,0
			V223.229L183.995,223.229z M204.737,230.466L204.737,230.466V217.68l0,0h5.734l0,0v0.718v0.729l0,0h-3.99l0,0v4.046l0,0h3.749
			v0.718v0.729l0,0h-3.749l0,0v4.398l0,0h4.101l0,0v0.717v0.73l0,0H204.737L204.737,230.466z M225.403,230.466l2.926-12.786h1.156
			h1.163l2.929,12.786l0,0h-0.925h-0.934l0,0l-0.591-2.896l0,0h-3.418l0,0l-0.606,2.896l0,0h-0.851H225.403L225.403,230.466z
			 M229.436,219.257l-1.422,6.866l0,0h2.839l0,0l-1.432-6.866H229.436L229.436,219.257z M251.122,230.466v-11.339l0,0h-2.95l0,0
			v-0.721v-0.727l0,0h7.646l0,0v0.718v0.729l0,0h-2.95l0,0v11.339l0,0h-0.866H251.122L251.122,230.466z M274.51,230.614
			c-1.386,0-2.339-0.31-2.858-0.928c-0.52-0.619-0.779-1.747-0.779-3.381v-4.71c0-1.436,0.285-2.472,0.854-3.109
			c0.566-0.637,1.497-0.955,2.784-0.955c1.312,0,2.245,0.315,2.802,0.949s0.835,1.695,0.835,3.18v5.36
			c0,1.268-0.284,2.184-0.854,2.746C276.728,230.333,275.796,230.614,274.51,230.614L274.51,230.614z M274.51,229.167
			c0.668,0,1.15-0.198,1.447-0.591c0.297-0.396,0.445-1.036,0.445-1.924v-5.351c0-0.879-0.136-1.488-0.405-1.822
			c-0.269-0.334-0.767-0.501-1.487-0.501c-0.668,0-1.15,0.207-1.448,0.625c-0.296,0.414-0.444,1.089-0.444,2.022v4.701
			c0,1.08,0.136,1.822,0.405,2.23C273.291,228.963,273.789,229.167,274.51,229.167L274.51,229.167z M293.734,230.466V217.68l0,0
			h0.878l0,0h3.173c1.059,0,1.844,0.26,2.352,0.779c0.507,0.52,0.761,1.32,0.761,2.409v-0.127c0,1.166-0.288,2.008-0.86,2.527
			c-0.38,0.35-0.931,0.581-1.648,0.696l0,0c0.773,0.056,1.309,0.237,1.611,0.547c0.355,0.368,0.544,1.083,0.563,2.141
			c0.012,0.77,0.046,1.413,0.108,1.933l0.037,0.3c0.039,0.335,0.083,0.619,0.129,0.854c0.047,0.234,0.105,0.479,0.177,0.727h-0.919
			h-0.915c-0.087-0.393-0.148-0.699-0.186-0.916c-0.04-0.219-0.065-0.398-0.077-0.538l-0.028-0.271
			c-0.053-0.532-0.083-1.12-0.096-1.77c-0.013-0.829-0.167-1.416-0.467-1.77c-0.298-0.35-0.789-0.525-1.473-0.525h-1.357h-0.019
			v5.79l0,0h-0.872H293.734L293.734,230.466z M295.479,223.229L295.479,223.229h1.395c0.882,0,1.481-0.167,1.8-0.501
			c0.319-0.334,0.479-0.965,0.479-1.893v0.126c0-0.699-0.163-1.178-0.488-1.441c-0.324-0.263-0.922-0.393-1.791-0.393h-1.395l0,0
			V223.229z"/>
		<path fill-rule="evenodd" clip-rule="evenodd" fill="#173F5F" d="M92.847,212.231v-18.228l0,0h1.239l0,0h3.184
			c1.834,0,3.188,0.37,4.07,1.115c0.882,0.74,1.323,1.892,1.323,3.448v0.093c0,1.543-0.397,2.663-1.19,3.351
			c-0.49,0.419-1.177,0.71-2.063,0.873l0,0c1.111,0.15,1.931,0.437,2.465,0.869c0.842,0.656,1.265,1.86,1.265,3.61v0.093
			c0,1.716-0.414,2.941-1.248,3.673c-0.829,0.736-2.222,1.103-4.176,1.103h-3.629l0,0H92.847L92.847,212.231z M95.334,196.067v5.794
			l0,0h2.117c0.966,0,1.658-0.221,2.085-0.657c0.428-0.437,0.64-1.151,0.64-2.139v-0.088c0-0.988-0.238-1.72-0.71-2.196
			c-0.472-0.476-1.204-0.714-2.196-0.714H95.334L95.334,196.067z M95.334,203.925v6.243l0,0h2.381c1.036,0,1.781-0.247,2.245-0.736
			c0.463-0.494,0.692-1.292,0.692-2.403v-0.093c0-1.102-0.238-1.883-0.719-2.332c-0.476-0.454-1.305-0.679-2.478-0.679H95.334
			L95.334,203.925z M117.265,207.602c0,1.618-0.423,2.831-1.27,3.634c-0.851,0.807-2.121,1.208-3.814,1.208
			c-1.707,0-2.981-0.401-3.832-1.208c-0.847-0.803-1.27-2.016-1.27-3.634v-13.598l0,0h1.239h1.248l0,0v12.884
			c0,1.212,0.207,2.095,0.626,2.654s1.081,0.838,1.989,0.838c0.921,0,1.583-0.273,1.989-0.82c0.406-0.542,0.608-1.433,0.608-2.672
			v-12.884l0,0h1.239h1.248l0,0V207.602L117.265,207.602z M128.996,199.295v-0.543c0-1.045-0.167-1.79-0.512-2.235
			c-0.344-0.44-0.917-0.661-1.719-0.661c-0.904,0-1.557,0.203-1.958,0.604c-0.401,0.405-0.604,1.058-0.604,1.957
			c0,0.732,0.177,1.297,0.529,1.689c0.353,0.396,1.142,0.917,2.368,1.561c1.896,0.997,3.144,1.856,3.748,2.579
			c0.595,0.724,0.891,1.716,0.891,2.981c0,1.741-0.441,3.042-1.327,3.91c-0.886,0.869-2.213,1.306-3.986,1.306
			c-1.9,0-3.241-0.441-4.021-1.327c-0.723-0.82-1.085-2.139-1.085-3.964l0.014-0.489v-0.543h2.54v0.543
			c-0.018,1.415,0.159,2.385,0.52,2.918c0.366,0.534,1.045,0.799,2.038,0.799c1.005,0,1.728-0.229,2.173-0.688
			c0.445-0.463,0.67-1.212,0.67-2.248c0-0.794-0.203-1.411-0.613-1.856c-0.406-0.437-1.301-1.023-2.694-1.755
			c-1.623-0.859-2.751-1.671-3.391-2.438c-0.63-0.759-0.943-1.676-0.943-2.761c0-1.617,0.428-2.83,1.279-3.633
			c0.851-0.807,2.134-1.208,3.849-1.208c1.79,0,3.042,0.37,3.748,1.111c0.653,0.688,0.983,1.834,0.992,3.435l-0.018,0.414v0.543
			H128.996L128.996,199.295z M135.481,212.231v-18.228l0,0h1.239h1.248l0,0v18.228l0,0h-1.235H135.481L135.481,212.231z
			 M144.77,212.231L144.77,212.231h-1.177h-1.177l0,0v-18.228l0,0h1.953h1.962l0,0l4.735,15.745l0,0l0,0v-15.745l0,0h1.146h1.155
			l0,0v18.228h-1.944h-1.958l-4.696-15.661l0,0l0,0V212.231L144.77,212.231z M157.696,212.231L157.696,212.231v-18.228l0,0h8.175
			l0,0v1.022v1.041l0,0h-5.688l0,0v5.767l0,0h5.344v1.023v1.041l0,0h-5.344l0,0v6.27l0,0h5.847l0,0v1.023v1.04l0,0H157.696
			L157.696,212.231z M177.223,199.295v-0.543c0-1.045-0.167-1.79-0.511-2.235c-0.344-0.44-0.917-0.661-1.72-0.661
			c-0.904,0-1.557,0.203-1.958,0.604c-0.401,0.405-0.604,1.058-0.604,1.957c0,0.732,0.177,1.297,0.529,1.689
			c0.353,0.396,1.142,0.917,2.368,1.561c1.896,0.997,3.144,1.856,3.748,2.579c0.595,0.724,0.891,1.716,0.891,2.981
			c0,1.741-0.441,3.042-1.327,3.91c-0.886,0.869-2.213,1.306-3.986,1.306c-1.9,0-3.241-0.441-4.021-1.327
			c-0.723-0.82-1.085-2.139-1.085-3.964l0.014-0.489v-0.543h2.54v0.543c-0.018,1.415,0.159,2.385,0.521,2.918
			c0.366,0.534,1.045,0.799,2.037,0.799c1.005,0,1.728-0.229,2.173-0.688c0.445-0.463,0.67-1.212,0.67-2.248
			c0-0.794-0.203-1.411-0.613-1.856c-0.406-0.437-1.301-1.023-2.694-1.755c-1.623-0.859-2.751-1.671-3.39-2.438
			c-0.631-0.759-0.944-1.676-0.944-2.761c0-1.617,0.428-2.83,1.279-3.633c0.851-0.807,2.134-1.208,3.849-1.208
			c1.791,0,3.042,0.37,3.748,1.111c0.652,0.688,0.983,1.834,0.992,3.435l-0.018,0.414v0.543H177.223L177.223,199.295z
			 M190.992,199.295v-0.543c0-1.045-0.167-1.79-0.512-2.235c-0.344-0.44-0.917-0.661-1.719-0.661c-0.904,0-1.557,0.203-1.958,0.604
			c-0.401,0.405-0.604,1.058-0.604,1.957c0,0.732,0.176,1.297,0.529,1.689c0.353,0.396,1.142,0.917,2.368,1.561
			c1.896,0.997,3.144,1.856,3.748,2.579c0.596,0.724,0.891,1.716,0.891,2.981c0,1.741-0.441,3.042-1.327,3.91
			c-0.887,0.869-2.214,1.306-3.986,1.306c-1.9,0-3.241-0.441-4.021-1.327c-0.724-0.82-1.085-2.139-1.085-3.964l0.013-0.489v-0.543
			h2.54v0.543c-0.018,1.415,0.159,2.385,0.52,2.918c0.366,0.534,1.045,0.799,2.037,0.799c1.005,0,1.729-0.229,2.174-0.688
			c0.445-0.463,0.67-1.212,0.67-2.248c0-0.794-0.203-1.411-0.613-1.856c-0.406-0.437-1.301-1.023-2.694-1.755
			c-1.623-0.859-2.751-1.671-3.391-2.438c-0.631-0.759-0.944-1.676-0.944-2.761c0-1.617,0.428-2.83,1.279-3.633
			c0.851-0.807,2.134-1.208,3.849-1.208c1.791,0,3.042,0.37,3.748,1.111c0.652,0.688,0.983,1.834,0.992,3.435l-0.018,0.414v0.543
			H190.992L190.992,199.295z M207.844,212.231L207.844,212.231h-1.142h-1.16l0,0v-18.228l0,0h2.024h2.024l0,0l3.307,14.687l0,0l0,0
			l3.201-14.687l0,0h2.023h2.024l0,0v18.228l0,0h-1.142h-1.16l0,0v-15.825h-0.004l-3.735,15.825h-1.252h-1.257l-3.757-15.878h0.004
			V212.231L207.844,212.231z M229.832,212.443c-1.976,0-3.333-0.441-4.074-1.323s-1.111-2.491-1.111-4.818v-6.716
			c0-2.046,0.406-3.523,1.217-4.432c0.807-0.908,2.134-1.362,3.968-1.362c1.869,0,3.201,0.45,3.995,1.354
			c0.793,0.904,1.19,2.416,1.19,4.533v7.641c0,1.808-0.406,3.113-1.217,3.916C232.993,212.042,231.666,212.443,229.832,212.443
			L229.832,212.443z M229.832,210.38c0.952,0,1.641-0.282,2.063-0.843c0.423-0.563,0.635-1.477,0.635-2.742v-7.628
			c0-1.252-0.194-2.121-0.577-2.597c-0.384-0.477-1.094-0.715-2.121-0.715c-0.953,0-1.64,0.296-2.064,0.891
			c-0.423,0.591-0.635,1.552-0.635,2.884v6.702c0,1.539,0.194,2.597,0.578,3.179C228.095,210.089,228.805,210.38,229.832,210.38
			L229.832,210.38z M239.438,212.231v-18.228l0,0h1.239l0,0h3.205c2.099,0,3.616,0.423,4.551,1.266
			c0.935,0.846,1.402,2.218,1.402,4.122v7.104c0,2.024-0.357,3.487-1.072,4.387c-0.714,0.9-1.883,1.35-3.501,1.35h-4.585l0,0
			H239.438L239.438,212.231z M241.925,210.168L241.925,210.168h2.535c1.081,0,1.83-0.265,2.254-0.798
			c0.423-0.533,0.635-1.481,0.635-2.84v-7.095c0-1.257-0.229-2.134-0.692-2.628c-0.463-0.493-1.283-0.74-2.465-0.74h-2.267l0,0
			V210.168L241.925,210.168z M254.124,212.231L254.124,212.231v-18.228l0,0h8.175l0,0v1.022v1.041l0,0h-5.688l0,0v5.767l0,0h5.345
			v1.023v1.041l0,0h-5.345l0,0v6.27l0,0h5.848l0,0v1.023v1.04l0,0H254.124L254.124,212.231z M266.42,212.231L266.42,212.231v-18.228
			l0,0h1.239h1.247l0,0v16.164l0,0h5.292l0,0v1.023v1.04l0,0H266.42L266.42,212.231z M295.628,206.306v0.542
			c0.062,1.976-0.287,3.404-1.037,4.281c-0.749,0.878-1.992,1.314-3.734,1.314c-1.715,0-2.985-0.405-3.81-1.222
			c-0.824-0.812-1.234-2.067-1.234-3.761v-8.104c0-1.962,0.401-3.382,1.208-4.255c0.803-0.873,2.116-1.31,3.934-1.31
			c1.719,0,2.953,0.396,3.69,1.19c0.665,0.688,0.992,1.741,0.983,3.161v0.608v0.543h-2.487v-0.543
			c0.035-1.098-0.102-1.855-0.41-2.271c-0.309-0.419-0.895-0.626-1.759-0.626c-0.944,0-1.628,0.242-2.047,0.724
			c-0.418,0.48-0.626,1.265-0.626,2.358v8.091c0,1.271,0.177,2.147,0.534,2.628c0.353,0.48,1.001,0.724,1.944,0.724
			c0.859,0,1.468-0.278,1.839-0.829c0.365-0.551,0.542-1.455,0.524-2.707v-0.538H295.628L295.628,206.306z M299.329,212.231
			l4.172-18.228h1.649h1.657l4.176,18.228l0,0h-1.318h-1.331l0,0l-0.843-4.127l0,0h-4.872l0,0l-0.864,4.127l0,0h-1.213H299.329
			L299.329,212.231z M305.079,196.252l-2.028,9.789l0,0h4.048l0,0l-2.041-9.789H305.079L305.079,196.252z M317.031,212.231
			L317.031,212.231h-1.177h-1.178l0,0v-18.228l0,0h1.953h1.962l0,0l4.736,15.745l0,0l0,0v-15.745l0,0h1.146h1.154l0,0v18.228h-1.943
			h-1.958l-4.696-15.661l0,0l0,0V212.231L317.031,212.231z M328.952,194.004L328.952,194.004h1.318h1.323l0,0l2.896,15.529l0,0l0,0
			l2.782-15.529l0,0h1.213h1.217l0,0l-3.84,18.228h-1.521h-1.539L328.952,194.004L328.952,194.004z M342.575,212.231l4.171-18.228
			h1.649h1.658l4.176,18.228l0,0h-1.318h-1.332l0,0l-0.842-4.127l0,0h-4.872l0,0L345,212.231l0,0h-1.212H342.575L342.575,212.231z
			 M348.325,196.252l-2.028,9.789l0,0h4.048l0,0l-2.042-9.789H348.325L348.325,196.252z M365.207,199.295v-0.543
			c0-1.045-0.168-1.79-0.512-2.235c-0.344-0.44-0.917-0.661-1.72-0.661c-0.903,0-1.557,0.203-1.958,0.604
			c-0.4,0.405-0.604,1.058-0.604,1.957c0,0.732,0.177,1.297,0.529,1.689c0.353,0.396,1.142,0.917,2.367,1.561
			c1.896,0.997,3.145,1.856,3.748,2.579c0.596,0.724,0.891,1.716,0.891,2.981c0,1.741-0.44,3.042-1.327,3.91
			c-0.886,0.869-2.214,1.306-3.986,1.306c-1.899,0-3.24-0.441-4.021-1.327c-0.724-0.82-1.085-2.139-1.085-3.964l0.014-0.489v-0.543
			h2.539v0.543c-0.018,1.415,0.159,2.385,0.521,2.918c0.366,0.534,1.045,0.799,2.037,0.799c1.005,0,1.729-0.229,2.174-0.688
			c0.445-0.463,0.67-1.212,0.67-2.248c0-0.794-0.202-1.411-0.613-1.856c-0.405-0.437-1.3-1.023-2.693-1.755
			c-1.623-0.859-2.751-1.671-3.391-2.438c-0.631-0.759-0.943-1.676-0.943-2.761c0-1.617,0.428-2.83,1.278-3.633
			c0.851-0.807,2.134-1.208,3.85-1.208c1.79,0,3.042,0.37,3.747,1.111c0.653,0.688,0.983,1.834,0.992,3.435l-0.018,0.414v0.543
			H365.207z"/>
	</g>
</g>
</svg>
