<?xml version="1.0" encoding="iso-8859-1"?>
<!-- Generator: Adobe Illustrator 19.0.0, SVG Export Plug-In . SVG Version: 6.00 Build 0)  -->
<svg version="1.1" id="Capa_1" xmlns="http://www.w3.org/2000/svg" xmlns:xlink="http://www.w3.org/1999/xlink" x="0px" y="0px"
	 viewBox="0 0 448.051 448.051" style="enable-background:new 0 0 448.051 448.051;" xml:space="preserve">
<g>
	<g>
		<path d="M447.875,316.825v-75.2c0-11.2-3.195-22.4-8-32L392,128.025c-4.801-9.6-16-16-27.199-16h-72
			c-11.199,0-20.801,9.6-20.801,20.8v171.2h-16v-224c0-17.6-14.398-32-32-32H0v288h48c8-27.2,32-48,62.398-48
			c30.402,0,56,20.8,62.402,48h116.801c8-27.2,32-48,62.398-48c25.602,0,46.398,14.4,56,35.2c4.801,8,12.68,12.8,20.68,12.8
			C439.875,336.025,449.477,326.425,447.875,316.825z M304,224.025v-80h64l46.398,80H304z"/>
	</g>
</g>
<g>
	<g>
		<path d="M352,304.025c-27.199,0-48,20.8-48,48s20.801,48,48,48c27.199,0,48-20.8,48-48S379.199,304.025,352,304.025z M352,374.425
			c-12.801,0-22.398-9.6-22.398-22.4s9.598-22.4,22.398-22.4c12.801,0,22.398,9.6,22.398,22.4S364.801,374.425,352,374.425z"/>
	</g>
</g>
<g>
	<g>
		<path d="M112,304.025c-27.199,0-48,20.8-48,48s20.801,48,48,48s48-20.8,48-48S139.199,304.025,112,304.025z M112,374.425
			c-12.801,0-22.398-9.6-22.398-22.4s9.598-22.4,22.398-22.4s22.398,9.6,22.398,22.4S124.801,374.425,112,374.425z"/>
	</g>
</g>
<g>
	<g>
		<circle cx="112" cy="352.025" r="8"/>
	</g>
</g>
<g>
	<g>
		<circle cx="352" cy="352.025" r="8"/>
	</g>
</g>
<g>
</g>
<g>
</g>
<g>
</g>
<g>
</g>
<g>
</g>
<g>
</g>
<g>
</g>
<g>
</g>
<g>
</g>
<g>
</g>
<g>
</g>
<g>
</g>
<g>
</g>
<g>
</g>
<g>
</g>
</svg>
