<?xml version="1.0" encoding="iso-8859-1"?>
<!-- Generator: Adobe Illustrator 19.0.0, SVG Export Plug-In . SVG Version: 6.00 Build 0)  -->
<svg version="1.1" id="Capa_1" xmlns="http://www.w3.org/2000/svg" xmlns:xlink="http://www.w3.org/1999/xlink" x="0px" y="0px"
	 viewBox="0 0 60.015 60.015" style="enable-background:new 0 0 60.015 60.015;" xml:space="preserve">
<g>
	<path d="M59.136,7.372c-1.133-1.133-3.109-1.133-4.242,0L27,35.265L15.344,23.609c-1.133-1.133-3.109-1.133-4.242,0
		c-0.566,0.566-0.879,1.32-0.879,2.121s0.313,1.555,0.879,2.121l13.777,13.777c0.566,0.566,1.32,0.879,2.121,0.879
		s1.555-0.313,2.121-0.879l30.015-30.015c0.566-0.566,0.879-1.32,0.879-2.121S59.702,7.938,59.136,7.372z"/>
	<path d="M27,45.007c-1.469,0-2.85-0.572-3.889-1.611L9.334,29.619c-1.039-1.039-1.611-2.42-1.611-3.889s0.572-2.85,1.611-3.889
		c1.005-1.006,2.423-1.582,3.889-1.582s2.884,0.576,3.889,1.582L27,31.73l26-26V3.507H0v53h53V21.285L30.889,43.396
		C29.85,44.435,28.469,45.007,27,45.007z"/>
</g>
<g>
</g>
<g>
</g>
<g>
</g>
<g>
</g>
<g>
</g>
<g>
</g>
<g>
</g>
<g>
</g>
<g>
</g>
<g>
</g>
<g>
</g>
<g>
</g>
<g>
</g>
<g>
</g>
<g>
</g>
</svg>
